<?xml version="1.0" encoding="UTF-8"?>
<svg id="Layer_1" data-name="Layer 1" xmlns="http://www.w3.org/2000/svg" viewBox="0 0 205.74 138.54">
  <defs>
    <style>
      .cls-1 {
        font-size: 26.46px;
      }

      .cls-1, cls-2, .cls-3, .cls-4, cls-5 {
        fill: #666;
      }

      .cls-1, .cls-3 {
        font-family: Montserrat-SemiBold, Montserrat;
        font-weight: 600;
      }

      .cls-2, .cls-4, .cls-5 {
        stroke: #666;
        stroke-linecap: round;
        stroke-linejoin: round;
      }

      .cls-6 {
        letter-spacing: .2em;
      }

      .cls-7 {
        letter-spacing: .16em;
      }

      .cls-8 {
        letter-spacing: .15em;
      }

      .cls-9 {
        letter-spacing: .16em;
      }

      .cls-10 {
        letter-spacing: .12em;
      }

      .cls-11 {
        letter-spacing: .11em;
      }

      .cls-3 {
        font-size: 11.48px;
      }

      .cls-12 {
        letter-spacing: .19em;
      }

      .cls-13 {
        letter-spacing: .19em;
      }

      .cls-4 {
        stroke-width: .75px;
      }

      .cls-5 {
        fill: none;
        stroke-width: 3px;
      }

      .cls-14 {
        letter-spacing: .14em;
      }

      .cls-15 {
        letter-spacing: .15em;
      }
    </style>
  </defs>
  <g>
    <path class="cls-4" d="m114.5,10.31l3.87,1.4s-13.4,4.28-20.42,6.87c-4.85,1.79-19.01,8.8-19.01,8.8,0,0,11.01-7.13,19.87-11.44,3.02-1.47,11.23-4.87,14.12-5.83.53-.18,1.1-.1,1.58.2Z"/>
    <path class="cls-4" d="m53.72,45.41s25.16-15.49,42.64-22.4c16.19-6.4,25.67-8.67,29.96-9.81.85-.22,1.74.05,2.32.71l8.24,9.33-1.83.15c-.72.06-1.44-.18-2-.65l-6.74-6.58s-12.78,1.76-34.09,10.66c-7.04,2.94-38.49,18.59-38.49,18.59Z"/>
    <path class="cls-5" d="m25.15,62.4s40.52-20.75,77.93-28.94c43.25-9.47,79.2-10.16,79.2-10.16,0,0-13.41,7.34-20.61,16.94-10.04,13.39-10.87,17.65-10.87,17.65,0,0-22.72-5.26-56.75-4.66-24,.42-68.89,9.18-68.89,9.18Z"/>
  </g>
  <text class="cls-1" transform="translate(11.19 103.75)"><tspan class="cls-8" x="0" y="0">L</tspan><tspan class="cls-15" x="19.95" y="0">ANG</tspan><tspan class="cls-10" x="93.53" y="0">K</tspan><tspan class="cls-11" x="115.99" y="0">A</tspan><tspan class="cls-14" x="138.8" y="0">W</tspan><tspan class="cls-15" x="172.64" y="0">I</tspan></text>
  <text class="cls-3" transform="translate(38.9 125.37)"><tspan class="cls-7" x="0" y="0">Y</tspan><tspan class="cls-13" x="9.41" y="0">A</tspan><tspan class="cls-6" x="20.19" y="0">CHT REN</tspan><tspan class="cls-9" x="89.4" y="0">T</tspan><tspan class="cls-6" x="98.21" y="0">A</tspan><tspan class="cls-12" x="109.11" y="0">L</tspan><tspan class="cls-6" x="118.23" y="0">S</tspan></text>
  <line class="cls-2" x1="12.84" y1="121.64" x2="33.55" y2="121.64"/>
  <line class="cls-2" x1="169.45" y1="121.64" x2="190.16" y2="121.64"/>
</svg>